<svg width="44" height="45" viewBox="0 0 44 45" fill="none" xmlns="http://www.w3.org/2000/svg">
<rect y="0.5" width="44" height="44" rx="12" fill="white"/>
<path fill-rule="evenodd" clip-rule="evenodd" d="M16.8499 18.5C16.8499 16.7603 18.2602 15.35 19.9999 15.35C21.7396 15.35 23.1499 16.7603 23.1499 18.5C23.1499 20.2397 21.7396 21.65 19.9999 21.65C18.2602 21.65 16.8499 20.2397 16.8499 18.5ZM19.9999 13.65C17.3213 13.65 15.1499 15.8214 15.1499 18.5C15.1499 21.1786 17.3213 23.35 19.9999 23.35C22.6785 23.35 24.8499 21.1786 24.8499 18.5C24.8499 15.8214 22.6785 13.65 19.9999 13.65ZM14.8499 28.4167C14.8499 28.0136 15.1786 27.4979 16.2183 27.0388C17.2078 26.6018 18.5841 26.35 19.9999 26.35C21.3956 26.35 22.7708 26.6431 23.7678 27.1047C24.2668 27.3357 24.6327 27.5912 24.8629 27.8378C25.0845 28.0752 25.1475 28.2656 25.1498 28.4085C25.1418 28.43 25.105 28.4981 24.9626 28.6088C24.7442 28.7786 24.3796 28.9616 23.8649 29.127C22.8445 29.4549 21.4362 29.65 19.9999 29.65C18.3014 29.65 16.9033 29.4521 15.9612 29.1316C15.4875 28.9704 15.181 28.7955 15.0076 28.6425C14.8488 28.5024 14.8498 28.4286 14.8499 28.4174L14.8499 28.4167ZM25.1518 28.401C25.152 28.401 25.1518 28.403 25.1505 28.4068C25.1509 28.4029 25.1516 28.401 25.1518 28.401ZM19.9999 24.65C18.4157 24.65 16.792 24.927 15.5315 25.4837C14.3213 26.0181 13.1499 26.9607 13.1499 28.4167C13.1499 29.0456 13.4675 29.5507 13.8828 29.9172C14.2876 30.2744 14.8248 30.5406 15.4136 30.741C16.5965 31.1435 18.1984 31.35 19.9999 31.35C21.5636 31.35 23.1553 31.1406 24.385 30.7455C24.9952 30.5494 25.5682 30.2913 26.0059 29.951C26.4403 29.6133 26.8499 29.1034 26.8499 28.4167C26.8499 27.7271 26.536 27.1389 26.1057 26.6778C25.6796 26.2213 25.108 25.8518 24.482 25.562C23.229 24.9819 21.6042 24.65 19.9999 24.65ZM26.1538 22.4185C26.1989 21.9512 26.6142 21.6089 27.0814 21.6539C28.2956 21.7709 29.4221 22.0865 30.2733 22.5788C31.0977 23.0555 31.8499 23.82 31.8499 24.8733C31.8499 25.4192 31.641 25.917 31.2348 26.3126C30.8518 26.6855 30.3291 26.9349 29.7317 27.1043C29.2801 27.2323 28.8102 26.97 28.6821 26.5183C28.5541 26.0667 28.8164 25.5968 29.2681 25.4687C29.7157 25.3418 29.9429 25.1978 30.0487 25.0947C30.1313 25.0143 30.1499 24.9536 30.1499 24.8733C30.1499 24.7166 30.0327 24.4034 29.4223 24.0504C28.8388 23.713 27.9652 23.447 26.9184 23.3461C26.4511 23.301 26.1088 22.8857 26.1538 22.4185ZM27.9999 13.65C27.5305 13.65 27.1499 14.0306 27.1499 14.5C27.1499 14.9694 27.5305 15.35 27.9999 15.35C28.9112 15.35 29.6499 16.0887 29.6499 17C29.6499 17.9113 28.9112 18.65 27.9999 18.65C27.5305 18.65 27.1499 19.0306 27.1499 19.5C27.1499 19.9694 27.5305 20.35 27.9999 20.35C29.8501 20.35 31.3499 18.8501 31.3499 17C31.3499 15.1498 29.8501 13.65 27.9999 13.65Z" fill="#347AE2"/>
</svg>
