<svg width="44" height="45" viewBox="0 0 44 45" fill="none" xmlns="http://www.w3.org/2000/svg">
<rect y="0.5" width="44" height="44" rx="12" fill="white"/>
<path fill-rule="evenodd" clip-rule="evenodd" d="M25.6009 12.899C25.269 12.567 24.7308 12.567 24.3989 12.899C24.0669 13.2309 24.0669 13.7691 24.3989 14.101L28.9478 18.65H17.9999C16.4484 18.65 14.9604 19.2663 13.8633 20.3634C12.7662 21.4605 12.1499 22.9485 12.1499 24.5C12.1499 26.0515 12.7662 27.5395 13.8633 28.6366C14.9604 29.7337 16.4484 30.35 17.9999 30.35H24.9999C25.4693 30.35 25.8499 29.9694 25.8499 29.5C25.8499 29.0306 25.4693 28.65 24.9999 28.65H17.9999C16.8993 28.65 15.8437 28.2128 15.0654 27.4345C14.2871 26.6562 13.8499 25.6006 13.8499 24.5C13.8499 23.3993 14.2871 22.3438 15.0654 21.5655C15.8437 20.7872 16.8993 20.35 17.9999 20.35H28.9478L24.3989 24.899C24.0669 25.2309 24.0669 25.7691 24.3989 26.101C24.7308 26.433 25.269 26.433 25.6009 26.101L31.6009 20.101C31.9329 19.7691 31.9329 19.2309 31.6009 18.899L25.6009 12.899Z" fill="#347AE2"/>
</svg>
