<svg width="87" height="30" viewBox="0 0 87 30" fill="none" xmlns="http://www.w3.org/2000/svg">
<path d="M13 9.5C13 11.8333 12.6111 13 9.5 13C6.38889 13 6 11.8333 6 9.5C6 7.16667 6.4375 6 9.5 6C12.5625 6 13 7.16667 13 9.5Z" fill="#347AE2" stroke="#347AE2" stroke-width="1.5" stroke-linecap="round" stroke-linejoin="round"/>
<path d="M13 20.5C13 22.8333 12.6111 24 9.5 24C6.38889 24 6 22.8333 6 20.5C6 18.1667 6.4375 17 9.5 17C12.5625 17 13 18.1667 13 20.5Z" fill="#347AE2" stroke="#347AE2" stroke-width="1.5" stroke-linecap="round" stroke-linejoin="round"/>
<path d="M24 20.5C24 22.8333 23.6111 24 20.5 24C17.3889 24 17 22.8333 17 20.5C17 18.1667 17.4375 17 20.5 17C23.5625 17 24 18.1667 24 20.5Z" fill="#347AE2" stroke="#347AE2" stroke-width="1.5" stroke-linecap="round" stroke-linejoin="round"/>
<path d="M43.88 19.16H38.06L37.06 22H34.68L39.66 8.08H42.3L47.28 22H44.88L43.88 19.16ZM43.24 17.3L40.98 10.84L38.7 17.3H43.24ZM59.7453 16.22C59.7453 16.6333 59.7186 17.0067 59.6653 17.34H51.2453C51.312 18.22 51.6386 18.9267 52.2253 19.46C52.812 19.9933 53.532 20.26 54.3853 20.26C55.612 20.26 56.4786 19.7467 56.9853 18.72H59.4453C59.112 19.7333 58.5053 20.5667 57.6253 21.22C56.7586 21.86 55.6786 22.18 54.3853 22.18C53.332 22.18 52.3853 21.9467 51.5453 21.48C50.7186 21 50.0653 20.3333 49.5853 19.48C49.1186 18.6133 48.8853 17.6133 48.8853 16.48C48.8853 15.3467 49.112 14.3533 49.5653 13.5C50.032 12.6333 50.6786 11.9667 51.5053 11.5C52.3453 11.0333 53.3053 10.8 54.3853 10.8C55.4253 10.8 56.352 11.0267 57.1653 11.48C57.9786 11.9333 58.612 12.5733 59.0653 13.4C59.5186 14.2133 59.7453 15.1533 59.7453 16.22ZM57.3653 15.5C57.352 14.66 57.052 13.9867 56.4653 13.48C55.8786 12.9733 55.152 12.72 54.2853 12.72C53.4986 12.72 52.8253 12.9733 52.2653 13.48C51.7053 13.9733 51.372 14.6467 51.2653 15.5H57.3653ZM66.9691 22.18C65.9291 22.18 64.9891 21.9467 64.1491 21.48C63.3091 21 62.6491 20.3333 62.1691 19.48C61.6891 18.6133 61.4491 17.6133 61.4491 16.48C61.4491 15.36 61.6957 14.3667 62.1891 13.5C62.6824 12.6333 63.3557 11.9667 64.2091 11.5C65.0624 11.0333 66.0157 10.8 67.0691 10.8C68.1224 10.8 69.0757 11.0333 69.9291 11.5C70.7824 11.9667 71.4557 12.6333 71.9491 13.5C72.4424 14.3667 72.6891 15.36 72.6891 16.48C72.6891 17.6 72.4357 18.5933 71.9291 19.46C71.4224 20.3267 70.7291 21 69.8491 21.48C68.9824 21.9467 68.0224 22.18 66.9691 22.18ZM66.9691 20.2C67.5557 20.2 68.1024 20.06 68.6091 19.78C69.1291 19.5 69.5491 19.08 69.8691 18.52C70.1891 17.96 70.3491 17.28 70.3491 16.48C70.3491 15.68 70.1957 15.0067 69.8891 14.46C69.5824 13.9 69.1757 13.48 68.6691 13.2C68.1624 12.92 67.6157 12.78 67.0291 12.78C66.4424 12.78 65.8957 12.92 65.3891 13.2C64.8957 13.48 64.5024 13.9 64.2091 14.46C63.9157 15.0067 63.7691 15.68 63.7691 16.48C63.7691 17.6667 64.0691 18.5867 64.6691 19.24C65.2824 19.88 66.0491 20.2 66.9691 20.2ZM80.703 10.8C81.5696 10.8 82.343 10.98 83.023 11.34C83.7163 11.7 84.2563 12.2333 84.643 12.94C85.0296 13.6467 85.223 14.5 85.223 15.5V22H82.963V15.84C82.963 14.8533 82.7163 14.1 82.223 13.58C81.7296 13.0467 81.0563 12.78 80.203 12.78C79.3496 12.78 78.6696 13.0467 78.163 13.58C77.6696 14.1 77.423 14.8533 77.423 15.84V22H75.143V10.98H77.423V12.24C77.7963 11.7867 78.2696 11.4333 78.843 11.18C79.4296 10.9267 80.0496 10.8 80.703 10.8Z" fill="black"/>
</svg>
