<svg width="20" height="20" viewBox="0 0 20 20" fill="none" xmlns="http://www.w3.org/2000/svg">
<path d="M12.5001 15.2019C12.6509 15.0511 12.7433 14.8416 12.743 14.6115L12.743 14.5102C12.743 14.0494 12.3699 13.6764 11.9097 13.677L7.35679 13.677L15.0585 5.97522C15.3838 5.64995 15.3838 5.12198 15.0585 4.79671C14.7333 4.47144 14.2053 4.47144 13.88 4.79671L6.17828 12.4985V7.94554C6.17828 7.48475 5.80525 7.11171 5.34504 7.1123H5.24376C4.78296 7.1123 4.40993 7.48534 4.41052 7.94554V14.6115C4.41052 15.0723 4.78355 15.4453 5.24376 15.4447L11.9097 15.4447C12.1401 15.4447 12.3493 15.3527 12.5001 15.2019Z" fill="#FF3B30"/>
</svg>
