<svg width="44" height="45" viewBox="0 0 44 45" fill="none" xmlns="http://www.w3.org/2000/svg">
<rect y="0.5" width="44" height="44" rx="12" fill="white"/>
<path fill-rule="evenodd" clip-rule="evenodd" d="M13.8499 22.5C13.8499 17.9989 17.4988 14.35 21.9999 14.35C22.8908 14.35 23.7467 14.4926 24.547 14.7557C24.993 14.9023 25.4733 14.6596 25.6199 14.2136C25.7665 13.7676 25.5238 13.2873 25.0778 13.1407C24.1084 12.822 23.0734 12.65 21.9999 12.65C16.5599 12.65 12.1499 17.06 12.1499 22.5C12.1499 27.94 16.5599 32.35 21.9999 32.35C27.4399 32.35 31.8499 27.94 31.8499 22.5C31.8499 22.0306 31.4693 21.65 30.9999 21.65C30.5305 21.65 30.1499 22.0306 30.1499 22.5C30.1499 27.0011 26.501 30.65 21.9999 30.65C17.4988 30.65 13.8499 27.0011 13.8499 22.5ZM29.6022 18.0997C29.9335 17.7671 29.9323 17.2289 29.5996 16.8977C29.267 16.5664 28.7288 16.5676 28.3976 16.9003L22.0495 23.2759L19.6208 20.678C19.3002 20.3351 18.7624 20.317 18.4194 20.6376C18.0765 20.9582 18.0584 21.4961 18.379 21.839L21.4093 25.0805C21.5668 25.249 21.7861 25.3463 22.0168 25.3499C22.2475 25.3535 22.4698 25.2632 22.6325 25.0997L29.6022 18.0997Z" fill="#347AE2"/>
</svg>
