<svg width="44" height="45" viewBox="0 0 44 45" fill="none" xmlns="http://www.w3.org/2000/svg">
<rect y="0.5" width="44" height="44" rx="12" fill="white"/>
<path fill-rule="evenodd" clip-rule="evenodd" d="M18.8927 16.7902C18.9593 16.3248 19.1016 16.0681 19.3031 15.8954C19.6384 15.608 20.3628 15.35 21.9999 15.35C23.637 15.35 24.3614 15.608 24.6967 15.8954C24.8985 16.0683 25.0409 16.3256 25.1074 16.7924C24.2012 16.6894 23.1685 16.65 21.9999 16.65C20.8299 16.65 19.7977 16.6896 18.8927 16.7902ZM17.1588 17.1032C17.2027 16.1776 17.4266 15.2647 18.1967 14.6046C19.0281 13.892 20.3036 13.65 21.9999 13.65C23.6962 13.65 24.9717 13.892 25.8031 14.6046C26.5762 15.2673 26.7988 16.1847 26.8415 17.1139C27.7271 17.3609 28.4775 17.7342 29.0803 18.2977C30.2613 19.4016 30.6877 21.0594 30.8091 23.2389C30.8356 23.3212 30.8499 23.4089 30.8499 23.5C30.8499 23.6577 30.8468 23.8169 30.8386 23.9766C30.8465 24.2793 30.8499 24.5911 30.8499 24.9118C30.8499 27.3466 30.532 29.3446 29.0662 30.6541C27.6392 31.929 25.3373 32.35 21.9999 32.35C20.3151 32.35 18.9159 32.268 17.7711 32.0396C16.6221 31.8105 15.6701 31.4227 14.9346 30.7676C13.4552 29.4499 13.1499 27.3222 13.1499 24.5C13.1499 24.2798 13.1518 24.0639 13.1559 23.8522C13.1516 23.7342 13.1499 23.6167 13.1499 23.5C13.1499 23.4331 13.1576 23.368 13.1723 23.3055C13.2644 21.0721 13.6717 19.3571 14.9346 18.2324C15.5352 17.6975 16.2801 17.3408 17.1588 17.1032ZM14.8569 23.841C14.9108 21.4192 15.2796 20.2016 16.0652 19.5019C16.4963 19.118 17.1277 18.8222 18.1037 18.6275C19.0839 18.432 20.3514 18.35 21.9999 18.35C23.6492 18.35 24.9141 18.4322 25.8913 18.633C26.8622 18.8325 27.4891 19.1373 27.9195 19.5396C28.6916 20.2614 29.0645 21.5152 29.1367 23.959C29.1136 24.3253 29.0585 24.6213 28.9612 24.8695C28.8369 25.1867 28.6281 25.4658 28.2261 25.7152C27.3433 26.263 25.5691 26.65 22.0059 26.65C18.4431 26.65 16.6651 26.2631 15.7789 25.7147C15.3749 25.4647 15.1649 25.1851 15.0399 24.8679C14.9319 24.594 14.8754 24.2617 14.8569 23.841ZM28.9825 27.243C28.8013 28.2423 28.4646 28.9119 27.9336 29.3863C27.0273 30.196 25.3292 30.65 21.9999 30.65C20.3514 30.65 19.0839 30.568 18.1037 30.3725C17.1277 30.1778 16.4963 29.882 16.0652 29.4981C15.5476 29.037 15.211 28.3512 15.0261 27.2444C16.3756 28.0116 18.5683 28.35 22.0059 28.35C25.4446 28.35 27.6356 28.0114 28.9825 27.243ZM19.1499 24.5C19.1499 24.0306 19.5305 23.65 19.9999 23.65H23.9999C24.4693 23.65 24.8499 24.0306 24.8499 24.5C24.8499 24.9694 24.4693 25.35 23.9999 25.35L19.9999 25.35C19.5305 25.35 19.1499 24.9694 19.1499 24.5Z" fill="#347AE2"/>
</svg>
