<svg width="202" height="18" viewBox="0 0 202 18" fill="none" xmlns="http://www.w3.org/2000/svg">
<circle cx="4.5" cy="9" r="4" fill="#34C759"/>
<path d="M21.216 13.084C20.44 13.084 19.732 12.904 19.092 12.544C18.452 12.176 17.944 11.668 17.568 11.02C17.2 10.364 17.016 9.628 17.016 8.812C17.016 7.996 17.2 7.264 17.568 6.616C17.944 5.96 18.452 5.452 19.092 5.092C19.732 4.724 20.44 4.54 21.216 4.54C22 4.54 22.712 4.724 23.352 5.092C23.992 5.452 24.496 5.956 24.864 6.604C25.232 7.252 25.416 7.988 25.416 8.812C25.416 9.636 25.232 10.372 24.864 11.02C24.496 11.668 23.992 12.176 23.352 12.544C22.712 12.904 22 13.084 21.216 13.084ZM21.216 12.136C21.8 12.136 22.324 12 22.788 11.728C23.26 11.456 23.628 11.068 23.892 10.564C24.164 10.06 24.3 9.476 24.3 8.812C24.3 8.14 24.164 7.556 23.892 7.06C23.628 6.556 23.264 6.168 22.8 5.896C22.336 5.624 21.808 5.488 21.216 5.488C20.624 5.488 20.096 5.624 19.632 5.896C19.168 6.168 18.8 6.556 18.528 7.06C18.264 7.556 18.132 8.14 18.132 8.812C18.132 9.476 18.264 10.06 18.528 10.564C18.8 11.068 19.168 11.456 19.632 11.728C20.104 12 20.632 12.136 21.216 12.136ZM29.5336 7.324H28.1536V13H27.0616V7.324H26.2096V6.424H27.0616V5.956C27.0616 5.22 27.2496 4.684 27.6256 4.348C28.0096 4.004 28.6216 3.832 29.4616 3.832V4.744C28.9816 4.744 28.6416 4.84 28.4416 5.032C28.2496 5.216 28.1536 5.524 28.1536 5.956V6.424H29.5336V7.324ZM33.4828 7.324H32.1028V13H31.0108V7.324H30.1588V6.424H31.0108V5.956C31.0108 5.22 31.1988 4.684 31.5748 4.348C31.9588 4.004 32.5708 3.832 33.4108 3.832V4.744C32.9308 4.744 32.5908 4.84 32.3908 5.032C32.1988 5.216 32.1028 5.524 32.1028 5.956V6.424H33.4828V7.324ZM35.848 4.12V13H34.756V4.12H35.848ZM38.2732 5.356C38.0652 5.356 37.8892 5.284 37.7452 5.14C37.6012 4.996 37.5292 4.82 37.5292 4.612C37.5292 4.404 37.6012 4.228 37.7452 4.084C37.8892 3.94 38.0652 3.868 38.2732 3.868C38.4732 3.868 38.6412 3.94 38.7772 4.084C38.9212 4.228 38.9932 4.404 38.9932 4.612C38.9932 4.82 38.9212 4.996 38.7772 5.14C38.6412 5.284 38.4732 5.356 38.2732 5.356ZM38.8012 6.424V13H37.7092V6.424H38.8012ZM43.8663 6.304C44.6663 6.304 45.3143 6.548 45.8103 7.036C46.3063 7.516 46.5543 8.212 46.5543 9.124V13H45.4743V9.28C45.4743 8.624 45.3103 8.124 44.9823 7.78C44.6543 7.428 44.2063 7.252 43.6383 7.252C43.0623 7.252 42.6023 7.432 42.2583 7.792C41.9223 8.152 41.7543 8.676 41.7543 9.364V13H40.6623V6.424H41.7543V7.36C41.9703 7.024 42.2623 6.764 42.6303 6.58C43.0063 6.396 43.4183 6.304 43.8663 6.304ZM54.3381 9.46C54.3381 9.668 54.3261 9.888 54.3021 10.12H49.0461C49.0861 10.768 49.3061 11.276 49.7061 11.644C50.1141 12.004 50.6061 12.184 51.1821 12.184C51.6541 12.184 52.0461 12.076 52.3581 11.86C52.6781 11.636 52.9021 11.34 53.0301 10.972H54.2061C54.0301 11.604 53.6781 12.12 53.1501 12.52C52.6221 12.912 51.9661 13.108 51.1821 13.108C50.5581 13.108 49.9981 12.968 49.5021 12.688C49.0141 12.408 48.6301 12.012 48.3501 11.5C48.0701 10.98 47.9301 10.38 47.9301 9.7C47.9301 9.02 48.0661 8.424 48.3381 7.912C48.6101 7.4 48.9901 7.008 49.4781 6.736C49.9741 6.456 50.5421 6.316 51.1821 6.316C51.8061 6.316 52.3581 6.452 52.8381 6.724C53.3181 6.996 53.6861 7.372 53.9421 7.852C54.2061 8.324 54.3381 8.86 54.3381 9.46ZM53.2101 9.232C53.2101 8.816 53.1181 8.46 52.9341 8.164C52.7501 7.86 52.4981 7.632 52.1781 7.48C51.8661 7.32 51.5181 7.24 51.1341 7.24C50.5821 7.24 50.1101 7.416 49.7181 7.768C49.3341 8.12 49.1141 8.608 49.0581 9.232H53.2101Z" fill="black"/>
<circle cx="79.5" cy="9" r="4" fill="#FF9500"/>
<path d="M96.216 13.084C95.44 13.084 94.732 12.904 94.092 12.544C93.452 12.176 92.944 11.668 92.568 11.02C92.2 10.364 92.016 9.628 92.016 8.812C92.016 7.996 92.2 7.264 92.568 6.616C92.944 5.96 93.452 5.452 94.092 5.092C94.732 4.724 95.44 4.54 96.216 4.54C97 4.54 97.712 4.724 98.352 5.092C98.992 5.452 99.496 5.956 99.864 6.604C100.232 7.252 100.416 7.988 100.416 8.812C100.416 9.636 100.232 10.372 99.864 11.02C99.496 11.668 98.992 12.176 98.352 12.544C97.712 12.904 97 13.084 96.216 13.084ZM96.216 12.136C96.8 12.136 97.324 12 97.788 11.728C98.26 11.456 98.628 11.068 98.892 10.564C99.164 10.06 99.3 9.476 99.3 8.812C99.3 8.14 99.164 7.556 98.892 7.06C98.628 6.556 98.264 6.168 97.8 5.896C97.336 5.624 96.808 5.488 96.216 5.488C95.624 5.488 95.096 5.624 94.632 5.896C94.168 6.168 93.8 6.556 93.528 7.06C93.264 7.556 93.132 8.14 93.132 8.812C93.132 9.476 93.264 10.06 93.528 10.564C93.8 11.068 94.168 11.456 94.632 11.728C95.104 12 95.632 12.136 96.216 12.136ZM105.062 6.304C105.862 6.304 106.51 6.548 107.006 7.036C107.502 7.516 107.75 8.212 107.75 9.124V13H106.67V9.28C106.67 8.624 106.506 8.124 106.178 7.78C105.85 7.428 105.402 7.252 104.834 7.252C104.258 7.252 103.798 7.432 103.454 7.792C103.118 8.152 102.95 8.676 102.95 9.364V13H101.858V6.424H102.95V7.36C103.166 7.024 103.458 6.764 103.826 6.58C104.202 6.396 104.614 6.304 105.062 6.304ZM110.625 4.12V13H109.533V4.12H110.625ZM113.051 5.356C112.843 5.356 112.667 5.284 112.523 5.14C112.379 4.996 112.307 4.82 112.307 4.612C112.307 4.404 112.379 4.228 112.523 4.084C112.667 3.94 112.843 3.868 113.051 3.868C113.251 3.868 113.419 3.94 113.555 4.084C113.699 4.228 113.771 4.404 113.771 4.612C113.771 4.82 113.699 4.996 113.555 5.14C113.419 5.284 113.251 5.356 113.051 5.356ZM113.579 6.424V13H112.487V6.424H113.579ZM118.644 6.304C119.444 6.304 120.092 6.548 120.588 7.036C121.084 7.516 121.332 8.212 121.332 9.124V13H120.252V9.28C120.252 8.624 120.088 8.124 119.76 7.78C119.432 7.428 118.984 7.252 118.416 7.252C117.84 7.252 117.38 7.432 117.036 7.792C116.7 8.152 116.532 8.676 116.532 9.364V13H115.44V6.424H116.532V7.36C116.748 7.024 117.04 6.764 117.408 6.58C117.784 6.396 118.196 6.304 118.644 6.304ZM129.115 9.46C129.115 9.668 129.103 9.888 129.079 10.12H123.823C123.863 10.768 124.083 11.276 124.483 11.644C124.891 12.004 125.383 12.184 125.959 12.184C126.431 12.184 126.823 12.076 127.135 11.86C127.455 11.636 127.679 11.34 127.807 10.972H128.983C128.807 11.604 128.455 12.12 127.927 12.52C127.399 12.912 126.743 13.108 125.959 13.108C125.335 13.108 124.775 12.968 124.279 12.688C123.791 12.408 123.407 12.012 123.127 11.5C122.847 10.98 122.707 10.38 122.707 9.7C122.707 9.02 122.843 8.424 123.115 7.912C123.387 7.4 123.767 7.008 124.255 6.736C124.751 6.456 125.319 6.316 125.959 6.316C126.583 6.316 127.135 6.452 127.615 6.724C128.095 6.996 128.463 7.372 128.719 7.852C128.983 8.324 129.115 8.86 129.115 9.46ZM127.987 9.232C127.987 8.816 127.895 8.46 127.711 8.164C127.527 7.86 127.275 7.632 126.955 7.48C126.643 7.32 126.295 7.24 125.911 7.24C125.359 7.24 124.887 7.416 124.495 7.768C124.111 8.12 123.891 8.608 123.835 9.232H127.987Z" fill="black"/>
<circle cx="154.5" cy="9" r="4" fill="#347AE2"/>
<path d="M172.572 4.636V5.524H170.292V13H169.2V5.524H166.908V4.636H172.572ZM175.008 7.492C175.2 7.116 175.472 6.824 175.824 6.616C176.184 6.408 176.62 6.304 177.132 6.304V7.432H176.844C175.62 7.432 175.008 8.096 175.008 9.424V13H173.916V6.424H175.008V7.492ZM177.985 9.688C177.985 9.016 178.121 8.428 178.393 7.924C178.665 7.412 179.037 7.016 179.509 6.736C179.989 6.456 180.521 6.316 181.105 6.316C181.681 6.316 182.181 6.44 182.605 6.688C183.029 6.936 183.345 7.248 183.553 7.624V6.424H184.657V13H183.553V11.776C183.337 12.16 183.013 12.48 182.581 12.736C182.157 12.984 181.661 13.108 181.093 13.108C180.509 13.108 179.981 12.964 179.509 12.676C179.037 12.388 178.665 11.984 178.393 11.464C178.121 10.944 177.985 10.352 177.985 9.688ZM183.553 9.7C183.553 9.204 183.453 8.772 183.253 8.404C183.053 8.036 182.781 7.756 182.437 7.564C182.101 7.364 181.729 7.264 181.321 7.264C180.913 7.264 180.541 7.36 180.205 7.552C179.869 7.744 179.601 8.024 179.401 8.392C179.201 8.76 179.101 9.192 179.101 9.688C179.101 10.192 179.201 10.632 179.401 11.008C179.601 11.376 179.869 11.66 180.205 11.86C180.541 12.052 180.913 12.148 181.321 12.148C181.729 12.148 182.101 12.052 182.437 11.86C182.781 11.66 183.053 11.376 183.253 11.008C183.453 10.632 183.553 10.196 183.553 9.7ZM186.094 9.688C186.094 9.016 186.23 8.428 186.502 7.924C186.774 7.412 187.146 7.016 187.618 6.736C188.098 6.456 188.634 6.316 189.226 6.316C189.738 6.316 190.214 6.436 190.654 6.676C191.094 6.908 191.43 7.216 191.662 7.6V4.12H192.766V13H191.662V11.764C191.446 12.156 191.126 12.48 190.702 12.736C190.278 12.984 189.782 13.108 189.214 13.108C188.63 13.108 188.098 12.964 187.618 12.676C187.146 12.388 186.774 11.984 186.502 11.464C186.23 10.944 186.094 10.352 186.094 9.688ZM191.662 9.7C191.662 9.204 191.562 8.772 191.362 8.404C191.162 8.036 190.89 7.756 190.546 7.564C190.21 7.364 189.838 7.264 189.43 7.264C189.022 7.264 188.65 7.36 188.314 7.552C187.978 7.744 187.71 8.024 187.51 8.392C187.31 8.76 187.21 9.192 187.21 9.688C187.21 10.192 187.31 10.632 187.51 11.008C187.71 11.376 187.978 11.66 188.314 11.86C188.65 12.052 189.022 12.148 189.43 12.148C189.838 12.148 190.21 12.052 190.546 11.86C190.89 11.66 191.162 11.376 191.362 11.008C191.562 10.632 191.662 10.196 191.662 9.7ZM200.612 9.46C200.612 9.668 200.6 9.888 200.576 10.12H195.32C195.36 10.768 195.58 11.276 195.98 11.644C196.388 12.004 196.88 12.184 197.456 12.184C197.928 12.184 198.32 12.076 198.632 11.86C198.952 11.636 199.176 11.34 199.304 10.972H200.48C200.304 11.604 199.952 12.12 199.424 12.52C198.896 12.912 198.24 13.108 197.456 13.108C196.832 13.108 196.272 12.968 195.776 12.688C195.288 12.408 194.904 12.012 194.624 11.5C194.344 10.98 194.204 10.38 194.204 9.7C194.204 9.02 194.34 8.424 194.612 7.912C194.884 7.4 195.264 7.008 195.752 6.736C196.248 6.456 196.816 6.316 197.456 6.316C198.08 6.316 198.632 6.452 199.112 6.724C199.592 6.996 199.96 7.372 200.216 7.852C200.48 8.324 200.612 8.86 200.612 9.46ZM199.484 9.232C199.484 8.816 199.392 8.46 199.208 8.164C199.024 7.86 198.772 7.632 198.452 7.48C198.14 7.32 197.792 7.24 197.408 7.24C196.856 7.24 196.384 7.416 195.992 7.768C195.608 8.12 195.388 8.608 195.332 9.232H199.484Z" fill="black"/>
</svg>
