<svg width="24" height="24" viewBox="0 0 24 24" fill="none" xmlns="http://www.w3.org/2000/svg">
<path fill-rule="evenodd" clip-rule="evenodd" d="M3.8499 9.99999C3.8499 6.60344 6.60335 3.84999 9.9999 3.84999C13.3965 3.84999 16.1499 6.60344 16.1499 9.99999C16.1499 13.3965 13.3965 16.15 9.9999 16.15C6.60335 16.15 3.8499 13.3965 3.8499 9.99999ZM9.9999 2.14999C5.66447 2.14999 2.1499 5.66456 2.1499 9.99999C2.1499 14.3354 5.66447 17.85 9.9999 17.85C11.8614 17.85 13.5716 17.202 14.9172 16.1194L20.3989 21.601C20.7308 21.933 21.269 21.933 21.6009 21.601C21.9329 21.2691 21.9329 20.7309 21.6009 20.399L16.1193 14.9173C17.202 13.5717 17.8499 11.8615 17.8499 9.99999C17.8499 5.66456 14.3353 2.14999 9.9999 2.14999Z" fill="black"/>
</svg>
