<svg width="24" height="24" viewBox="0 0 24 24" fill="none" xmlns="http://www.w3.org/2000/svg">
<path fill-rule="evenodd" clip-rule="evenodd" d="M6.60531 6.51379C8.19349 7.05876 9.8568 5.96491 10.1523 4.45576C10.3339 3.67141 10.5472 3.32841 10.7587 3.15286C10.9629 2.98341 11.3112 2.85 12.068 2.85C12.6537 2.85 12.986 2.9973 13.2031 3.20131C13.4367 3.42074 13.6531 3.81471 13.783 4.52742L13.783 4.52743L13.7839 4.53189C13.9392 5.35916 14.5088 5.98299 15.1708 6.32811C15.8347 6.6742 16.6676 6.7832 17.4528 6.50677C17.4637 6.50292 17.4745 6.49886 17.4853 6.49457C18.2385 6.19431 18.6478 6.20025 18.8979 6.28469C19.1438 6.36774 19.4258 6.59081 19.7748 7.18205C20.1315 7.78636 20.1784 8.10881 20.1375 8.32686C20.0946 8.55515 19.9136 8.89271 19.2771 9.42089L19.2655 9.43073C17.9883 10.5299 17.9883 12.4701 19.2655 13.5693L19.2771 13.5791C19.9136 14.1073 20.0946 14.4449 20.1375 14.6731C20.1784 14.8912 20.1315 15.2136 19.7748 15.818C19.4278 16.4058 19.1415 16.6392 18.8818 16.7328C18.6165 16.8284 18.1993 16.8428 17.4486 16.5868C15.9257 16.0535 14.076 16.9608 13.7816 18.6708C13.6508 19.4305 13.4404 19.7311 13.2525 19.8767C13.0498 20.0337 12.6967 20.15 11.9699 20.15C11.2703 20.15 10.9103 20.0198 10.6987 19.8501C10.4937 19.6856 10.2861 19.3694 10.1574 18.6662C9.86046 16.9591 8.01269 16.054 6.4912 16.5868C5.74043 16.8428 5.32324 16.8284 5.05802 16.7328C4.79828 16.6392 4.51197 16.4058 4.16498 15.818C4.16023 15.8099 4.15534 15.8019 4.15033 15.794C3.84527 15.3141 3.81336 14.9815 3.87794 14.7201C3.95052 14.4262 4.18739 14.0489 4.75663 13.5825L4.77243 13.5693C6.07165 12.4512 5.92896 10.5134 4.67797 9.52705C4.11037 8.97074 3.93316 8.61708 3.89198 8.36078C3.85278 8.11686 3.90908 7.78513 4.25588 7.19433C4.57394 6.69781 4.86752 6.48717 5.15509 6.39858C5.46386 6.30347 5.90798 6.30481 6.60531 6.51379ZM12.068 1.15C11.1567 1.15 10.3275 1.3016 9.67309 1.84464C9.02732 2.38052 8.70217 3.1744 8.49204 4.08984C8.48951 4.10089 8.4872 4.11198 8.48511 4.12311C8.37905 4.68782 7.70753 5.09965 7.14963 4.90324C7.13768 4.89903 7.12564 4.89509 7.11351 4.89142C6.25 4.63017 5.4229 4.53726 4.65462 4.77392C3.86505 5.01715 3.27784 5.5639 2.81375 6.29403C2.80874 6.30192 2.80385 6.3099 2.7991 6.31795C2.36734 7.04946 2.08125 7.80733 2.21351 8.63047C2.34325 9.43801 2.84686 10.1206 3.52862 10.7807C3.55383 10.8051 3.58052 10.8279 3.60855 10.849C4.07852 11.2029 4.11421 11.8861 3.66988 12.2752C2.96806 12.8521 2.42393 13.5173 2.22754 14.3124C2.02337 15.139 2.23343 15.9423 2.70799 16.6939C3.14484 17.4308 3.69099 18.0473 4.48185 18.3322C5.2711 18.6165 6.12873 18.5071 7.04408 18.1943L7.0441 18.1944L7.05151 18.1918C7.68659 17.9682 8.38498 18.3908 8.48282 18.9592L8.48278 18.9592L8.48428 18.9674C8.65001 19.8766 8.98171 20.6521 9.63496 21.1762C10.282 21.6952 11.0995 21.85 11.9699 21.85C12.8131 21.85 13.6374 21.7288 14.2934 21.2208C14.964 20.7014 15.2934 19.9095 15.457 18.9592C15.5548 18.3908 16.2532 17.9682 16.8883 18.1918L16.8883 18.1918L16.8957 18.1943C17.811 18.5071 18.6687 18.6165 19.4579 18.3322C20.253 18.0458 20.8008 17.4242 21.2388 16.6821C21.6671 15.9564 21.9636 15.1863 21.8083 14.3594C21.6554 13.5452 21.1034 12.8868 20.3695 12.2765C19.8869 11.8565 19.8869 11.1435 20.3695 10.7235C21.1034 10.1132 21.6554 9.45484 21.8083 8.64064C21.9636 7.81369 21.6671 7.04364 21.2388 6.31795C20.8028 5.57919 20.2508 4.94727 19.4418 4.67406C18.6426 4.40414 17.7827 4.54865 16.8748 4.90786C16.5836 5.00576 16.245 4.97099 15.9567 4.82065C15.6627 4.6674 15.4964 4.43703 15.455 4.21979C15.2904 3.31865 14.9672 2.52618 14.3673 1.96244C13.7503 1.38271 12.9542 1.15 12.068 1.15ZM9.84995 11.5C9.84995 10.3126 10.8125 9.35 12 9.35C13.1874 9.35 14.15 10.3126 14.15 11.5C14.15 12.6874 13.1874 13.65 12 13.65C10.8125 13.65 9.84995 12.6874 9.84995 11.5ZM12 7.65C9.87366 7.65 8.14995 9.3737 8.14995 11.5C8.14995 13.6263 9.87366 15.35 12 15.35C14.1263 15.35 15.85 13.6263 15.85 11.5C15.85 9.3737 14.1263 7.65 12 7.65Z" fill="#7C8DB5"/>
</svg>
